<svg xmlns="http://www.w3.org/2000/svg" viewBox="0 0 208.54 20.18"><defs><style>.cls-1,.cls-2{fill:#2e3192;}.cls-2{fill-rule:evenodd;}</style></defs><g id="Laag_2" data-name="Laag 2"><g id="Laag_1-2" data-name="Laag 1"><path id="path456" class="cls-1" d="M0,6.89H3.67l5.06,8.2V6.89h3.64V18.65H8.74l-5.1-8.2v8.2H0V6.89Z"/><path id="path458" class="cls-1" d="M32.13,8.1h3.54V9.69h1.91v1.16H35.67v7.8H32.13v-7.8H30.21V9.69h1.92V8.1Z"/><path id="path460" class="cls-1" d="M14.39,10.83h3.54v7.83H14.39Z"/><path id="path462" class="cls-1" d="M14.38,6.89h3.55V9.3H14.38Z"/><path id="path464" class="cls-1" d="M76.35,10.3c-2.85,0-5.16,2-5.16,4.39s2.31,4.39,5.16,4.39,5.17-2,5.17-4.39-2.31-4.39-5.17-4.39m1.42,4.38v1.66c0,1.24-.73,1.76-1.45,1.76s-1.44-.52-1.44-1.76V13c0-1.24.74-1.75,1.44-1.75s1.45.51,1.45,1.75v1.66Z"/><path id="path466" class="cls-1" d="M66.57,14.71v-1.4a1.39,1.39,0,1,0-2.77,0v2.78a1.39,1.39,0,1,0,2.77,0V14.71Zm0-7.82H70V18.65H66.54V18.2a4.26,4.26,0,0,1-4.07.3,4.18,4.18,0,0,1-2.42-3.88,4.25,4.25,0,0,1,4.49-4.1,4.7,4.7,0,0,1,2,.71V6.89Z"/><path id="path468" class="cls-1" d="M26.2,10.47a3.82,3.82,0,0,1,4,3.93c0,.55,0,4.25,0,4.25H26.68V13.52a1.57,1.57,0,0,0-1.62-1.44,1.63,1.63,0,0,0-1.68,1.44v5.13H19.87V10.83h3.51v.82a4.34,4.34,0,0,1,2.82-1.18"/><path id="path470" class="cls-1" d="M54.94,10.47a3.82,3.82,0,0,1,4,3.93v4.25H55.41V13.52a1.57,1.57,0,0,0-1.62-1.44,1.62,1.62,0,0,0-1.67,1.44v5.13H48.61V10.83h3.51v.82a4.3,4.3,0,0,1,2.82-1.18"/><path id="path472" class="cls-1" d="M43.81,15.92a4,4,0,0,1,0,.47c0,1.43-.94,1.75-1.47,1.75s-1.48-.32-1.48-1.75c0-.43,0-1.61,0-1.61h6.66c0-2.43-2.34-4.44-5.22-4.44s-5.2,2-5.2,4.39,2.33,4.39,5.2,4.39a5.17,5.17,0,0,0,5-3.21Zm-2.93-2.36A2.84,2.84,0,0,1,41.11,12a1.43,1.43,0,0,1,2.48,0,2.93,2.93,0,0,1,.24,1.53Z"/><g id="layer1"><g id="g4811"><g id="g4816"><path id="path4644-6" class="cls-2" d="M98.27.49C93.2.58,86.58,3.05,85.71,11c-.68,6.25,4.79,9.22,8.43,9.16a9,9,0,0,0,5.62-1.93l.73-7H95l-.26,2.5h2.64v2.56c-.83.88-3,1.2-3.53,1.2-2.29,0-5.48-2-5.31-6.31s5.8-10,13.34-7.48L102.05,1A9.74,9.74,0,0,0,98.27.49Z"/><path id="_44104296-3-2" data-name=" 44104296-3-2" class="cls-2" d="M159.91.4l-2.65,19.08h4.62c3.83,0,7-.52,7.69-5.24.41-2.65-1.63-4.43-2.63-5.32.64-.47,1.36-.27,1.72-3.28A4.92,4.92,0,0,0,164.24.4Zm2.42,2.68h1.48A2.22,2.22,0,0,1,166,5.24c-.09.72-.62,2.51-3.41,2.51h-.85Zm-1.07,7.45h2.45c2.09,0,3.27,2.58,3.16,3.5S166.1,17,162.55,17h-2.21Z"/><path id="path4686-9" class="cls-2" d="M180,0c-2.66,0-6.12,1.8-8.1,8-2.27,7.14.88,10.56,4.09,11.47s8.11-.86,9.86-7.75-.77-11-4.76-11.67A6.33,6.33,0,0,0,180,0Zm.17,2.68a2.58,2.58,0,0,1,.29,0c1.4.18,4.26,1.64,2.69,8S178,17.28,176.77,17s-3.72-1.65-2.22-7.43c1.4-5.41,4.08-6.91,5.61-6.86Z"/><path id="_43441624-7-1" data-name=" 43441624-7-1" class="cls-2" d="M151.45,19.53l.32-2.7h-9.39l.83-5.73h6.26l.33-2.7h-6.21l.78-5.08h7l.38-2.76H142l-2.63,19Z"/><path id="_43443024-5-2" data-name=" 43443024-5-2" class="cls-2" d="M189.48.4,193,7.12,197.89.4h3.6l-7.44,9.54-1.26,9.43h-2.95l1.29-9.43L186.07.4Z"/><path id="path4642-3-7" class="cls-2" d="M116.87,19.53h2.76L124,6.8l3.67,12.73L134.28,6.8l.55,12.73h2.66l-.6-18.9h-2.45L128.39,12,125.51.63h-2.4Z"/><path id="path4739-0" class="cls-1" d="M109.77.65l-8.73,19h3.06l2.37-5.18h5.41l1,5.18h2.65l-3.29-19Zm.53,5.49,1.09,5.75h-3.72Z"/></g></g></g><polygon class="cls-1" points="197.79 14.81 199.42 14.81 199.42 19.35 200.52 19.35 200.52 14.81 202.14 14.81 202.14 13.88 197.79 13.88 197.79 14.81"/><polygon class="cls-1" points="205.9 17.61 204.91 13.88 203.25 13.88 203.25 19.35 204.28 19.35 204.28 15.04 205.36 19.35 206.43 19.35 207.51 15.04 207.51 19.35 208.54 19.35 208.54 13.88 206.88 13.88 205.9 17.61"/></g></g></svg>