<svg xmlns="http://www.w3.org/2000/svg" viewBox="0 0 186.63 45.97"><defs><style>.cls-1{fill:#ed1c24;}</style></defs><g id="Laag_2" data-name="Laag 2"><g id="Laag_1-2" data-name="Laag 1"><path class="cls-1" d="M162.24,0H24.39C9.8,0,0,10.45,0,23S9.78,46,24.41,46H162.22C176.85,46,186.63,35.6,186.63,23S176.83,0,162.24,0Zm-.07,40.34H24.45C12.83,40.38,5.76,32.57,5.76,23S12.87,5.67,24.45,5.65H162.17c11.59,0,18.7,7.77,18.7,17.35S173.8,40.38,162.17,40.34Z"/><polygon class="cls-1" points="34.59 27.22 25.26 12.12 18.51 12.12 18.51 12.12 18.51 33.77 25.22 33.77 25.22 18.68 34.59 33.77 41.27 33.77 41.27 12.12 34.59 12.12 34.59 27.22"/><polygon class="cls-1" points="87.69 19.41 87.69 17.27 84.17 17.27 84.17 14.35 77.65 14.35 77.65 14.35 77.65 17.27 74.12 17.27 74.12 19.41 77.65 19.41 77.65 33.77 84.17 33.77 84.17 19.41 87.69 19.41"/><rect class="cls-1" x="45" y="19.38" width="6.51" height="14.4"/><rect class="cls-1" x="44.98" y="12.12" width="6.53" height="4.43"/><path class="cls-1" d="M159.06,18.4c-5.26,0-9.52,3.61-9.52,8.08s4.26,8.08,9.52,8.08,9.51-3.62,9.51-8.08S164.31,18.4,159.06,18.4Zm2.61,8.06h0v3c0,2.3-1.36,3.24-2.67,3.24s-2.66-.94-2.66-3.24V23.4c0-2.28,1.37-3.22,2.66-3.22s2.67.94,2.67,3.22c0,.87,0,2.48,0,3.06Z"/><polygon class="cls-1" points="161.67 26.46 161.67 26.45 161.67 26.45 161.67 26.46"/><path class="cls-1" d="M141,20.1a8.54,8.54,0,0,0-3.68-1.29,7.8,7.8,0,0,0-8.27,7.53,7.7,7.7,0,0,0,4.44,7.14,7.85,7.85,0,0,0,7.5-.54v.83h6.43V12.12H141Zm.05,6.4v2.55a2.56,2.56,0,1,1-5.1,0V23.93a2.56,2.56,0,1,1,5.1,0V26.5Z"/><path class="cls-1" d="M66.74,18.71h0a7.9,7.9,0,0,0-5.19,2.17V19.37H55.09V33.77h6.46V24.31a3,3,0,0,1,3.09-2.64,2.87,2.87,0,0,1,3,2.64v9.46h6.47s0-6.82,0-7.84C74.11,20.23,69.18,18.64,66.74,18.71Z"/><path class="cls-1" d="M119.64,18.71h0a7.84,7.84,0,0,0-5.19,2.17c0-.35,0-1.51,0-1.51H108V33.77h6.46s0-8.84,0-9.46a3,3,0,0,1,3.09-2.64,2.87,2.87,0,0,1,3,2.64v9.46H127V25.93C127,20.23,122.07,18.64,119.64,18.71Z"/><polygon class="cls-1" points="99.16 28.73 99.16 28.73 99.16 28.73 99.16 28.73"/><path class="cls-1" d="M106,26.63c0-4.46-4.31-8.16-9.6-8.16s-9.58,3.62-9.58,8.08,4.29,8.08,9.58,8.08c4.39,0,8.11-2.5,9.24-5.9H99.16v.88c0,2.63-1.73,3.22-2.69,3.22s-2.72-.59-2.72-3.22v-3S106,26.64,106,26.63ZM94.18,21.57a2.67,2.67,0,0,1,2.29-1.32,2.64,2.64,0,0,1,2.28,1.32,5.37,5.37,0,0,1,.43,2.82H93.75A5.47,5.47,0,0,1,94.18,21.57Z"/><path class="cls-1" d="M171.89,13.75c0-1-.58-1.4-1.75-1.4h-1.87v4.92H169V15.13h.85l1.3,2.14H172l-1.4-2.17A1.28,1.28,0,0,0,171.89,13.75ZM169,14.5V13h1c.52,0,1.08.11,1.08.72,0,.76-.57.8-1.2.8Z"/><path class="cls-1" d="M169.92,10.54a4.27,4.27,0,1,0,4.32,4.26A4.27,4.27,0,0,0,169.92,10.54Zm0,7.83a3.45,3.45,0,0,1-3.48-3.57,3.47,3.47,0,1,1,6.94,0A3.45,3.45,0,0,1,169.92,18.37Z"/></g></g></svg>