<svg xmlns="http://www.w3.org/2000/svg" viewBox="0 0 259.99 39.98"><g id="Laag_2" data-name="Laag 2"><g id="Laag_1-2" data-name="Laag 1"><polygon points="14.99 5 9.99 5 9.99 0 0 0 0 5 0 14.99 0 24.99 0 34.98 0 39.98 9.99 39.98 9.99 34.98 9.99 24.99 9.99 14.99 14.99 14.99 14.99 9.99 14.99 5"/><polygon points="19.99 14.99 14.99 14.99 14.99 19.99 14.99 24.99 19.99 24.99 19.99 19.99 19.99 14.99"/><polygon points="24.99 5 24.99 14.99 24.99 24.99 19.99 24.99 19.99 29.98 19.99 34.98 24.99 34.98 24.99 39.98 34.98 39.98 34.98 34.98 34.98 24.99 34.98 14.99 34.98 5 34.98 0 24.99 0 24.99 5"/><rect x="39.98" width="9.99" height="9.99"/><polygon points="39.98 24.99 39.98 34.98 39.98 39.98 49.97 39.98 49.97 34.98 49.97 24.99 49.97 14.99 39.98 14.99 39.98 24.99"/><polygon points="64.96 14.99 54.97 14.99 54.97 24.99 54.97 34.98 54.97 39.98 64.96 39.98 64.96 34.98 64.96 24.99 69.96 24.99 69.96 19.99 64.96 19.99 64.96 14.99"/><polygon points="79.96 14.99 74.96 14.99 69.96 14.99 69.96 19.99 74.96 19.99 74.96 29.98 74.96 39.98 84.95 39.98 84.95 29.98 84.95 19.99 79.96 19.99 79.96 14.99"/><polygon points="104.94 9.99 99.94 9.99 99.94 5 89.95 5 89.95 9.99 84.95 9.99 84.95 14.99 89.95 14.99 89.95 24.99 89.95 34.98 89.95 39.98 99.94 39.98 99.94 34.98 99.94 24.99 99.94 14.99 104.94 14.99 104.94 9.99"/><path d="M129.93,15h-20v5h-5V35h5v5h25V35h-20V30h20V20h-5Zm-5,10h-10V20h10Z"/><polygon points="149.92 14.99 139.92 14.99 139.92 24.99 139.92 34.98 139.92 39.98 149.92 39.98 149.92 34.98 149.92 24.99 154.91 24.99 154.91 19.99 149.92 19.99 149.92 14.99"/><polygon points="164.91 14.99 159.91 14.99 154.91 14.99 154.91 19.99 159.91 19.99 159.91 29.98 159.91 39.98 169.91 39.98 169.91 29.98 169.91 19.99 164.91 19.99 164.91 14.99"/><path d="M194.89,5V15h-15v5h-5V35h5v5h25V0h-10Zm0,30h-10V20h10V35Z"/><path d="M234.87,15h-20v5h-5V35h5v5h20V35h5V20h-5Zm-5,10V35h-10V20h10Z"/><rect x="252.49" y="7.5" width="2.5" height="2.5"/><rect x="242.5" y="2.5" width="2.5" height="2.5"/><polygon points="249.99 2.5 252.49 2.5 254.99 2.5 254.99 0 252.49 0 249.99 0 247.49 0 245 0 245 2.5 247.49 2.5 249.99 2.5"/><rect x="254.99" y="2.5" width="2.5" height="2.5"/><polygon points="257.49 5 257.49 7.5 257.49 9.99 257.49 12.49 257.49 14.99 259.99 14.99 259.99 12.49 259.99 9.99 259.99 7.5 259.99 5 257.49 5"/><polygon points="242.5 9.99 242.5 7.5 242.5 5 240 5 240 7.5 240 9.99 240 12.49 240 14.99 242.5 14.99 242.5 12.49 242.5 9.99"/><polygon points="249.99 17.49 247.49 17.49 245 17.49 245 19.99 247.49 19.99 249.99 19.99 252.49 19.99 254.99 19.99 254.99 17.49 252.49 17.49 249.99 17.49"/><rect x="242.5" y="14.99" width="2.5" height="2.5"/><rect x="254.99" y="14.99" width="2.5" height="2.5"/><polygon points="245 9.99 245 12.49 245 14.99 247.49 14.99 247.49 12.49 249.99 12.49 252.49 12.49 252.49 9.99 249.99 9.99 247.49 9.99 247.49 7.5 249.99 7.5 252.49 7.5 252.49 5 249.99 5 247.49 5 245 5 245 7.5 245 9.99"/><rect x="252.49" y="12.49" width="2.5" height="2.5"/></g></g></svg>