<svg xmlns="http://www.w3.org/2000/svg" viewBox="0 0 34.41 30.46"><defs><style>.cls-1{fill:#ffec00;}</style></defs><g id="Laag_2" data-name="Laag 2"><g id="Laag_1-2" data-name="Laag 1"><path class="cls-1" d="M15.91,1.75,1.2,27.22a1.5,1.5,0,0,0,1.3,2.24H31.91a1.5,1.5,0,0,0,1.3-2.24L18.5,1.75A1.49,1.49,0,0,0,15.91,1.75Z"/><path d="M31.91,30.46H2.5A2.5,2.5,0,0,1,.34,26.72L15,1.25a2.5,2.5,0,0,1,4.33,0l14.7,25.47a2.5,2.5,0,0,1-2.16,3.74ZM16.78,2.25,2.07,27.72a.48.48,0,0,0,0,.49.47.47,0,0,0,.43.25H31.91a.47.47,0,0,0,.43-.25.48.48,0,0,0,0-.49L17.63,2.25A.46.46,0,0,0,17.21,2a.47.47,0,0,0-.43.25Z"/><circle cx="17.21" cy="24.25" r="2.21"/><path d="M16,8.79a3.14,3.14,0,0,1,2.37,0c1.31.56,1.07,1.58,1.08,2.16,0,.3-.52,6.47-.66,7.75s-.43,2.23-1.6,2.23S15.74,20,15.6,18.7s-.66-7.45-.66-7.75C15,10.37,14.71,9.35,16,8.79Z"/></g></g></svg>